<svg id="Ebene_1" data-name="Ebene 1" xmlns="http://www.w3.org/2000/svg" viewBox="0 0 595.28 595.28"><defs><style>.cls-1{fill:#010101;}</style></defs><path id="Pfad_66" data-name="Pfad 66" class="cls-1" d="M171.41,564.75V468.23h18.48l2.05,10.26,1,1,1-1q9.24-12.32,22.59-12.32a22.88,22.88,0,0,1,10.27,2.06v18.48H214.53a21.62,21.62,0,0,0-15.6,6.37,22.1,22.1,0,0,0-7,15.4v56.27Zm65.71-78V468.23h18.69V447.69L272,427.15h3.9v41.08h20.74v18.48H275.94V536a10,10,0,0,0,2.87,7.39,10.23,10.23,0,0,0,7.6,2.88l12.32-2V562.7l-11.29,2q-15.4,0-23.52-7.39T255.81,536V486.71Z"/><path id="Pfad_67" data-name="Pfad 67" class="cls-1" d="M157.19,468.23v96.52H138.7l-2-8.21-1-1-1,1q-10.26,10.26-26.69,10.27A47.91,47.91,0,0,1,73,552.63q-14.37-14.16-14.37-36.14T73,480.35a47.87,47.87,0,0,1,34.91-14.18q16.42,0,26.69,10.27l1,1,1-1,2-8.21Zm-26.91,70.85q8.43-9.24,8.42-22.59t-8.42-22.59a27.62,27.62,0,0,0-21.35-9.24q-14.18,0-22.08,9t-7.91,22.79q0,13.75,7.91,22.8t22.08,9A27.62,27.62,0,0,0,130.28,539.08Z"/><path id="Pfad_58" data-name="Pfad 58" class="cls-1" d="M132.38,102.4l5.14-6.16A26.7,26.7,0,0,1,148,88.85,33.71,33.71,0,0,1,161.14,86q16.63,0,25.78,9.55t9.14,25.37v63.66H175.51V122.94q0-18.48-16.43-18.48a21.68,21.68,0,0,0-15.61,6.36,22.18,22.18,0,0,0-7,15.41v58.32H116V122.94q0-18.48-16.43-18.48a21.68,21.68,0,0,0-15.61,6.36,22.14,22.14,0,0,0-7,15.41v58.32H56.4V88H74.88l2.05,8.21,1,1,1-1q3.08-4.51,9.65-7.39A32.11,32.11,0,0,1,101.58,86Q123.77,86,132.38,102.4Zm94.89,70q-14.79-14.38-14.79-36.15t14.89-36a51.1,51.1,0,0,1,70.85,0q14.89,14.27,14.89,36t-14.89,36a49.44,49.44,0,0,1-35.43,14.27A50,50,0,0,1,227.27,172.44Zm13.55-58.95q-7.8,9-7.8,22.8t7.8,22.8q7.8,9,22,9t22-9q7.8-9,7.8-22.8t-7.8-22.8q-7.8-9-22-9T240.82,113.49Zm90.77,71.06V28.47h20.54V96.24l1,1,1-1q3.07-4.51,9.65-7.39A31.9,31.9,0,0,1,376.78,86q18.08,0,28.54,10.88T415.8,125v59.56H395.26V125q-1-20.55-20.54-20.54a21.68,21.68,0,0,0-15.61,6.36,22.18,22.18,0,0,0-7,15.41v58.32Zm107,0V88h20.13v96.52Zm34.71-78V88H492V67.49L508.21,47h3.9V88h20.74v18.48H512.12v49.3A10,10,0,0,0,515,163.2a10.26,10.26,0,0,0,7.6,2.87l12.32-2V182.5l-11.29,2.06q-15.4,0-23.52-7.4T492,155.81v-49.3Z"/><circle id="Ellipse_8" data-name="Ellipse 8" class="cls-1" cx="27.1" cy="353.97" r="13.5"/><circle id="Ellipse_19" data-name="Ellipse 19" class="cls-1" cx="252.52" cy="393.26" r="13.5"/><circle id="Ellipse_20" data-name="Ellipse 20" class="cls-1" cx="289.19" cy="393.26" r="13.5"/><circle id="Ellipse_9" data-name="Ellipse 9" class="cls-1" cx="568.17" cy="172.3" r="13.5"/><circle id="Ellipse_16" data-name="Ellipse 16" class="cls-1" cx="449.69" cy="57.85" r="13.5"/><path class="cls-1" d="M458.12,352.82l.32-.57.42.5c7.67,9.05,19,13.64,33.58,13.64,13.1,0,23.56-3.89,31.1-11.55s11.37-18.33,11.37-31.69c0-13.74-3.91-24.62-11.65-32.35S505,279.15,491.87,279.15s-23.57,4-31.49,11.75l-.14.13c-7.83,7.66-11.81,18.4-11.81,31.93,0,8.52-1.72,14.62-5.11,18.15s-8.6,5.31-15.47,5.31H406.69l-.13-.24c-3.91-7.31-8.38-14.79-13.28-22.22l-.12-.17A170.63,170.63,0,0,0,376,302c-7.09-7.6-14.05-13.37-20.69-17.16a43.43,43.43,0,0,0-22.09-5.69c-5.78,0-10.38.94-13.68,2.81s-4.84,4.29-4.84,7.46c0,3.37,1.44,6.86,4.29,10.38a46.32,46.32,0,0,1,5-1.44,26.5,26.5,0,0,1,5.76-.58,32.62,32.62,0,0,1,14.87,3.69c4.82,2.44,10.06,6.93,15.57,13.33A141.48,141.48,0,0,1,371,328.35c3.89,5.42,7.73,11.26,11.43,17.37l.42.7H304.2c-5.79,0-10.36-.75-13.6-2.24a13.38,13.38,0,0,1-7.05-8.05c-1.35-3.72-2-9-2-15.66V282a15.68,15.68,0,0,0-4.22-1.37,27.4,27.4,0,0,0-5.48-.56,12.31,12.31,0,0,0-8.06,2.48c-2,1.62-3,4.05-3,7.21v30.67c0,6.54-.65,11.74-1.94,15.48a13.36,13.36,0,0,1-7,8.13c-3.31,1.55-7.92,2.34-13.71,2.34H203.9V333.69c0-10.62-1.56-19.55-4.65-26.55a42.74,42.74,0,0,0-12.52-16.7,48.16,48.16,0,0,0-17.46-8.73,75.62,75.62,0,0,0-19.51-2.57h0c-12.26,0-22.8,2.31-31.31,6.85s-14.53,10-17.92,16.3l-.87-.22V216.49a15.68,15.68,0,0,0-4.22-1.37,28.16,28.16,0,0,0-5.48-.57,12.4,12.4,0,0,0-8.06,2.5c-2,1.61-3,4-3,7.2V346.42H56.85v18.06H236c10.5,0,18.38-1,23.41-2.85A22.07,22.07,0,0,0,271,351.68l.41-.74.4.75c4.49,8.48,12.29,12.79,23.17,12.79h135.9a47.58,47.58,0,0,0,16.24-2.57A20.69,20.69,0,0,0,458.12,352.82Zm17.19-48.75c3.85-4.69,9.42-7.07,16.56-7.07s12.87,2.38,16.65,7.08,5.66,10.95,5.66,18.69-1.9,14-5.66,18.69-9.39,7.07-16.65,7.07-12.71-2.38-16.56-7.07-5.75-10.95-5.75-18.69S471.49,308.74,475.31,304.07ZM182.78,346.42H99.45V346a52.06,52.06,0,0,1,5.7-24.65,41,41,0,0,1,16.38-16.77c7.06-4,15.59-6,25.33-6,11.45,0,20.39,3,26.58,9s9.34,15.36,9.34,27.83Z"/></svg>